<svg width="33" height="32" viewBox="0 0 33 32" fill="none" xmlns="http://www.w3.org/2000/svg">
<g filter="url(#filter0_d_12_285)">
<path d="M6.8894 5.7788C8.48517 5.7788 9.7788 4.48517 9.7788 2.8894C9.7788 1.29363 8.48517 0 6.8894 0C5.29363 0 4 1.29363 4 2.8894C4 4.48517 5.29363 5.7788 6.8894 5.7788Z" fill="#04EE7D"/>
<path d="M12.5071 7.96831V23.9987H17.4843V16.0713C17.4843 13.9795 17.8778 11.9538 20.4714 11.9538C23.0294 11.9538 23.0611 14.3453 23.0611 16.2034V24H28.0409V15.209C28.0409 10.8907 27.1113 7.57214 22.064 7.57214C19.6408 7.57214 18.0165 8.90195 17.3523 10.1605H17.2849V7.96831H12.5071ZM4.39618 7.96831H9.38132V23.9987H4.39618V7.96831Z" fill="#04EE7D"/>
</g>
<defs>
<filter id="filter0_d_12_285" x="0" y="0" width="32.041" height="32" filterUnits="userSpaceOnUse" color-interpolation-filters="sRGB">
<feFlood flood-opacity="0" result="BackgroundImageFix"/>
<feColorMatrix in="SourceAlpha" type="matrix" values="0 0 0 0 0 0 0 0 0 0 0 0 0 0 0 0 0 0 127 0" result="hardAlpha"/>
<feOffset dy="4"/>
<feGaussianBlur stdDeviation="2"/>
<feComposite in2="hardAlpha" operator="out"/>
<feColorMatrix type="matrix" values="0 0 0 0 0 0 0 0 0 0 0 0 0 0 0 0 0 0 0.25 0"/>
<feBlend mode="normal" in2="BackgroundImageFix" result="effect1_dropShadow_12_285"/>
<feBlend mode="normal" in="SourceGraphic" in2="effect1_dropShadow_12_285" result="shape"/>
</filter>
</defs>
</svg>
